<svg width="180" height="192" viewBox="0 0 180 192" fill="none" xmlns="http://www.w3.org/2000/svg">
<g filter="url(#filter0_d_5_35)">
<path d="M90 0L167.942 45V135L90 180L12.0577 135V45L90 0Z" fill="url(#paint0_radial_5_35)"/>
</g>
<path d="M53.5938 96.9297C53.5938 96.3984 53.5156 95.9219 53.3594 95.5C53.2031 95.0625 52.9141 94.6562 52.4922 94.2812C52.0703 93.9062 51.4609 93.5312 50.6641 93.1562C49.8828 92.7656 48.8516 92.3594 47.5703 91.9375C46.0703 91.4375 44.625 90.875 43.2344 90.25C41.8438 89.6094 40.6016 88.8672 39.5078 88.0234C38.4141 87.1641 37.5469 86.1641 36.9062 85.0234C36.2656 83.8672 35.9453 82.5234 35.9453 80.9922C35.9453 79.5234 36.2734 78.2031 36.9297 77.0312C37.5859 75.8438 38.5 74.8359 39.6719 74.0078C40.8594 73.1641 42.25 72.5234 43.8438 72.0859C45.4375 71.6328 47.1797 71.4062 49.0703 71.4062C51.5703 71.4062 53.7734 71.8438 55.6797 72.7188C57.6016 73.5781 59.1016 74.8047 60.1797 76.3984C61.2734 77.9766 61.8203 79.8438 61.8203 82H53.6406C53.6406 81.1406 53.4609 80.3828 53.1016 79.7266C52.7578 79.0703 52.2344 78.5547 51.5312 78.1797C50.8281 77.8047 49.9453 77.6172 48.8828 77.6172C47.8516 77.6172 46.9844 77.7734 46.2812 78.0859C45.5781 78.3984 45.0469 78.8203 44.6875 79.3516C44.3281 79.8672 44.1484 80.4375 44.1484 81.0625C44.1484 81.5781 44.2891 82.0469 44.5703 82.4688C44.8672 82.875 45.2812 83.2578 45.8125 83.6172C46.3594 83.9766 47.0156 84.3203 47.7812 84.6484C48.5625 84.9766 49.4375 85.2969 50.4062 85.6094C52.2188 86.1875 53.8281 86.8359 55.2344 87.5547C56.6562 88.2578 57.8516 89.0625 58.8203 89.9688C59.8047 90.8594 60.5469 91.875 61.0469 93.0156C61.5625 94.1562 61.8203 95.4453 61.8203 96.8828C61.8203 98.4141 61.5234 99.7734 60.9297 100.961C60.3359 102.148 59.4844 103.156 58.375 103.984C57.2656 104.797 55.9375 105.414 54.3906 105.836C52.8438 106.258 51.1172 106.469 49.2109 106.469C47.4609 106.469 45.7344 106.25 44.0312 105.812C42.3438 105.359 40.8125 104.672 39.4375 103.75C38.0625 102.812 36.9609 101.617 36.1328 100.164C35.3203 98.6953 34.9141 96.9531 34.9141 94.9375H43.1641C43.1641 95.9375 43.2969 96.7812 43.5625 97.4688C43.8281 98.1562 44.2188 98.7109 44.7344 99.1328C45.25 99.5391 45.8828 99.8359 46.6328 100.023C47.3828 100.195 48.2422 100.281 49.2109 100.281C50.2578 100.281 51.1016 100.133 51.7422 99.8359C52.3828 99.5234 52.8516 99.1172 53.1484 98.6172C53.4453 98.1016 53.5938 97.5391 53.5938 96.9297ZM76.6973 92.6758V97.2637H66.1328V92.6758H76.6973ZM98.8633 90.5664V95.3125H85.7324V90.5664H98.8633ZM87.7891 80.4062V106H81.6191V80.4062H87.7891ZM103.012 80.4062V106H96.8594V80.4062H103.012ZM117.76 101.377V86.9805H123.701V106H118.146L117.76 101.377ZM118.322 97.5098L119.869 97.4746C119.869 98.752 119.717 99.9355 119.412 101.025C119.107 102.104 118.656 103.041 118.059 103.838C117.473 104.635 116.746 105.256 115.879 105.701C115.023 106.135 114.033 106.352 112.908 106.352C111.971 106.352 111.109 106.223 110.324 105.965C109.551 105.695 108.883 105.279 108.32 104.717C107.758 104.143 107.318 103.41 107.002 102.52C106.697 101.617 106.545 100.539 106.545 99.2852V86.9805H112.469V99.3203C112.469 99.7422 112.521 100.105 112.627 100.41C112.732 100.715 112.885 100.973 113.084 101.184C113.283 101.383 113.529 101.535 113.822 101.641C114.127 101.734 114.473 101.781 114.859 101.781C115.75 101.781 116.447 101.594 116.951 101.219C117.455 100.844 117.807 100.334 118.006 99.6895C118.217 99.0449 118.322 98.3184 118.322 97.5098ZM127.023 79H132.947V101.324L132.332 106H127.023V79ZM144.619 96.2793V96.6484C144.619 98.0898 144.473 99.4023 144.18 100.586C143.887 101.77 143.436 102.795 142.826 103.662C142.217 104.518 141.449 105.18 140.523 105.648C139.598 106.117 138.502 106.352 137.236 106.352C136.088 106.352 135.104 106.105 134.283 105.613C133.463 105.109 132.777 104.418 132.227 103.539C131.676 102.648 131.23 101.623 130.891 100.463C130.551 99.291 130.281 98.0371 130.082 96.7012V96.2617C130.281 94.9375 130.551 93.6953 130.891 92.5352C131.23 91.3633 131.676 90.3379 132.227 89.459C132.777 88.5684 133.457 87.877 134.266 87.3848C135.086 86.8809 136.064 86.6289 137.201 86.6289C138.479 86.6289 139.58 86.8691 140.506 87.3496C141.443 87.8301 142.217 88.5039 142.826 89.3711C143.436 90.2383 143.887 91.2578 144.18 92.4297C144.473 93.6016 144.619 94.8848 144.619 96.2793ZM138.695 96.6484V96.2793C138.695 95.5879 138.654 94.9375 138.572 94.3281C138.49 93.7188 138.344 93.1797 138.133 92.7109C137.922 92.2422 137.623 91.873 137.236 91.6035C136.85 91.334 136.346 91.1992 135.725 91.1992C135.092 91.1992 134.559 91.3047 134.125 91.5156C133.703 91.7266 133.363 92.0312 133.105 92.4297C132.859 92.8164 132.684 93.2969 132.578 93.8711C132.473 94.4336 132.426 95.0723 132.438 95.7871V97.1758C132.414 98.1484 132.502 98.9805 132.701 99.6719C132.9 100.363 133.246 100.891 133.738 101.254C134.23 101.617 134.904 101.799 135.76 101.799C136.393 101.799 136.902 101.676 137.289 101.43C137.688 101.184 137.986 100.832 138.186 100.375C138.385 99.918 138.52 99.373 138.59 98.7402C138.66 98.1074 138.695 97.4102 138.695 96.6484Z" fill="white"/>
<defs>
<filter id="filter0_d_5_35" x="8.05774" y="0" width="163.885" height="192" filterUnits="userSpaceOnUse" color-interpolation-filters="sRGB">
<feFlood flood-opacity="0" result="BackgroundImageFix"/>
<feColorMatrix in="SourceAlpha" type="matrix" values="0 0 0 0 0 0 0 0 0 0 0 0 0 0 0 0 0 0 127 0" result="hardAlpha"/>
<feOffset dy="8"/>
<feGaussianBlur stdDeviation="2"/>
<feComposite in2="hardAlpha" operator="out"/>
<feColorMatrix type="matrix" values="0 0 0 0 0 0 0 0 0 0 0 0 0 0 0 0 0 0 0.25 0"/>
<feBlend mode="normal" in2="BackgroundImageFix" result="effect1_dropShadow_5_35"/>
<feBlend mode="normal" in="SourceGraphic" in2="effect1_dropShadow_5_35" result="shape"/>
</filter>
<radialGradient id="paint0_radial_5_35" cx="0" cy="0" r="1" gradientUnits="userSpaceOnUse" gradientTransform="translate(90 90) rotate(90) scale(90)">
<stop stop-color="#100CFF"/>
<stop offset="1" stop-color="#030083"/>
</radialGradient>
</defs>
</svg>
