<svg width="193" height="87" viewBox="0 0 193 87" fill="none" xmlns="http://www.w3.org/2000/svg">
<g filter="url(#filter0_d_50_479)">
<path d="M37.5 0L69.976 18.75V56.25L37.5 75L5.02405 56.25V18.75L37.5 0Z" fill="url(#paint0_radial_50_479)"/>
</g>
<path d="M100.594 43.9297C100.594 43.3984 100.516 42.9219 100.359 42.5C100.203 42.0625 99.9141 41.6562 99.4922 41.2812C99.0703 40.9062 98.4609 40.5312 97.6641 40.1562C96.8828 39.7656 95.8516 39.3594 94.5703 38.9375C93.0703 38.4375 91.625 37.875 90.2344 37.25C88.8438 36.6094 87.6016 35.8672 86.5078 35.0234C85.4141 34.1641 84.5469 33.1641 83.9062 32.0234C83.2656 30.8672 82.9453 29.5234 82.9453 27.9922C82.9453 26.5234 83.2734 25.2031 83.9297 24.0312C84.5859 22.8438 85.5 21.8359 86.6719 21.0078C87.8594 20.1641 89.25 19.5234 90.8438 19.0859C92.4375 18.6328 94.1797 18.4062 96.0703 18.4062C98.5703 18.4062 100.773 18.8438 102.68 19.7188C104.602 20.5781 106.102 21.8047 107.18 23.3984C108.273 24.9766 108.82 26.8438 108.82 29H100.641C100.641 28.1406 100.461 27.3828 100.102 26.7266C99.7578 26.0703 99.2344 25.5547 98.5312 25.1797C97.8281 24.8047 96.9453 24.6172 95.8828 24.6172C94.8516 24.6172 93.9844 24.7734 93.2812 25.0859C92.5781 25.3984 92.0469 25.8203 91.6875 26.3516C91.3281 26.8672 91.1484 27.4375 91.1484 28.0625C91.1484 28.5781 91.2891 29.0469 91.5703 29.4688C91.8672 29.875 92.2812 30.2578 92.8125 30.6172C93.3594 30.9766 94.0156 31.3203 94.7812 31.6484C95.5625 31.9766 96.4375 32.2969 97.4062 32.6094C99.2188 33.1875 100.828 33.8359 102.234 34.5547C103.656 35.2578 104.852 36.0625 105.82 36.9688C106.805 37.8594 107.547 38.875 108.047 40.0156C108.562 41.1562 108.82 42.4453 108.82 43.8828C108.82 45.4141 108.523 46.7734 107.93 47.9609C107.336 49.1484 106.484 50.1562 105.375 50.9844C104.266 51.7969 102.938 52.4141 101.391 52.8359C99.8438 53.2578 98.1172 53.4688 96.2109 53.4688C94.4609 53.4688 92.7344 53.25 91.0312 52.8125C89.3438 52.3594 87.8125 51.6719 86.4375 50.75C85.0625 49.8125 83.9609 48.6172 83.1328 47.1641C82.3203 45.6953 81.9141 43.9531 81.9141 41.9375H90.1641C90.1641 42.9375 90.2969 43.7812 90.5625 44.4688C90.8281 45.1562 91.2188 45.7109 91.7344 46.1328C92.25 46.5391 92.8828 46.8359 93.6328 47.0234C94.3828 47.1953 95.2422 47.2812 96.2109 47.2812C97.2578 47.2812 98.1016 47.1328 98.7422 46.8359C99.3828 46.5234 99.8516 46.1172 100.148 45.6172C100.445 45.1016 100.594 44.5391 100.594 43.9297ZM123.697 39.6758V44.2637H113.133V39.6758H123.697ZM145.863 37.5664V42.3125H132.732V37.5664H145.863ZM134.789 27.4062V53H128.619V27.4062H134.789ZM150.012 27.4062V53H143.859V27.4062H150.012ZM164.76 48.377V33.9805H170.701V53H165.146L164.76 48.377ZM165.322 44.5098L166.869 44.4746C166.869 45.752 166.717 46.9355 166.412 48.0254C166.107 49.1035 165.656 50.041 165.059 50.8379C164.473 51.6348 163.746 52.2559 162.879 52.7012C162.023 53.1348 161.033 53.3516 159.908 53.3516C158.971 53.3516 158.109 53.2227 157.324 52.9648C156.551 52.6953 155.883 52.2793 155.32 51.7168C154.758 51.1426 154.318 50.4102 154.002 49.5195C153.697 48.6172 153.545 47.5391 153.545 46.2852V33.9805H159.469V46.3203C159.469 46.7422 159.521 47.1055 159.627 47.4102C159.732 47.7148 159.885 47.9727 160.084 48.1836C160.283 48.3828 160.529 48.5352 160.822 48.6406C161.127 48.7344 161.473 48.7812 161.859 48.7812C162.75 48.7812 163.447 48.5938 163.951 48.2188C164.455 47.8438 164.807 47.334 165.006 46.6895C165.217 46.0449 165.322 45.3184 165.322 44.5098ZM174.023 26H179.947V48.3242L179.332 53H174.023V26ZM191.619 43.2793V43.6484C191.619 45.0898 191.473 46.4023 191.18 47.5859C190.887 48.7695 190.436 49.7949 189.826 50.6621C189.217 51.5176 188.449 52.1797 187.523 52.6484C186.598 53.1172 185.502 53.3516 184.236 53.3516C183.088 53.3516 182.104 53.1055 181.283 52.6133C180.463 52.1094 179.777 51.418 179.227 50.5391C178.676 49.6484 178.23 48.623 177.891 47.4629C177.551 46.291 177.281 45.0371 177.082 43.7012V43.2617C177.281 41.9375 177.551 40.6953 177.891 39.5352C178.23 38.3633 178.676 37.3379 179.227 36.459C179.777 35.5684 180.457 34.877 181.266 34.3848C182.086 33.8809 183.064 33.6289 184.201 33.6289C185.479 33.6289 186.58 33.8691 187.506 34.3496C188.443 34.8301 189.217 35.5039 189.826 36.3711C190.436 37.2383 190.887 38.2578 191.18 39.4297C191.473 40.6016 191.619 41.8848 191.619 43.2793ZM185.695 43.6484V43.2793C185.695 42.5879 185.654 41.9375 185.572 41.3281C185.49 40.7188 185.344 40.1797 185.133 39.7109C184.922 39.2422 184.623 38.873 184.236 38.6035C183.85 38.334 183.346 38.1992 182.725 38.1992C182.092 38.1992 181.559 38.3047 181.125 38.5156C180.703 38.7266 180.363 39.0312 180.105 39.4297C179.859 39.8164 179.684 40.2969 179.578 40.8711C179.473 41.4336 179.426 42.0723 179.438 42.7871V44.1758C179.414 45.1484 179.502 45.9805 179.701 46.6719C179.9 47.3633 180.246 47.8906 180.738 48.2539C181.23 48.6172 181.904 48.7988 182.76 48.7988C183.393 48.7988 183.902 48.6758 184.289 48.4297C184.688 48.1836 184.986 47.832 185.186 47.375C185.385 46.918 185.52 46.373 185.59 45.7402C185.66 45.1074 185.695 44.4102 185.695 43.6484Z" fill="black"/>
<defs>
<filter id="filter0_d_50_479" x="1.02405" y="0" width="72.9519" height="87" filterUnits="userSpaceOnUse" color-interpolation-filters="sRGB">
<feFlood flood-opacity="0" result="BackgroundImageFix"/>
<feColorMatrix in="SourceAlpha" type="matrix" values="0 0 0 0 0 0 0 0 0 0 0 0 0 0 0 0 0 0 127 0" result="hardAlpha"/>
<feOffset dy="8"/>
<feGaussianBlur stdDeviation="2"/>
<feComposite in2="hardAlpha" operator="out"/>
<feColorMatrix type="matrix" values="0 0 0 0 0 0 0 0 0 0 0 0 0 0 0 0 0 0 0.25 0"/>
<feBlend mode="normal" in2="BackgroundImageFix" result="effect1_dropShadow_50_479"/>
<feBlend mode="normal" in="SourceGraphic" in2="effect1_dropShadow_50_479" result="shape"/>
</filter>
<radialGradient id="paint0_radial_50_479" cx="0" cy="0" r="1" gradientUnits="userSpaceOnUse" gradientTransform="translate(37.5 37.5) rotate(90) scale(37.5)">
<stop stop-color="#100CFF"/>
<stop offset="1" stop-color="#030083"/>
</radialGradient>
</defs>
</svg>
